<svg xmlns="http://www.w3.org/2000/svg" viewBox="0 0 512 512" width="512" height="512">
  <defs>
    <linearGradient id="grad" x1="0%" y1="0%" x2="100%" y2="100%">
      <stop offset="0%" style="stop-color:#8b5cf6;stop-opacity:1" />
      <stop offset="100%" style="stop-color:#3b82f6;stop-opacity:1" />
    </linearGradient>
    <filter id="shadow" x="-20%" y="-20%" width="140%" height="140%">
      <feDropShadow dx="0" dy="16" stdDeviation="16" flood-color="#000" flood-opacity="0.3"/>
    </filter>
  </defs>
  <rect width="100%" height="100%" rx="112" fill="url(#grad)" />
  <!-- Stylized Tooth vector shape -->
  <path d="M 176 293 C 176 346, 213 389, 234 389 C 255 389, 255 346, 255 346 C 255 346, 255 389, 276 389 C 298 389, 335 346, 335 293 C 335 240, 362 186, 308 149 C 255 112, 255 176, 255 176 C 255 176, 255 112, 202 149 C 149 186, 176 240, 176 293 Z" fill="white" filter="url(#shadow)" />
</svg>
